<?xml version="1.0" encoding="utf-8"?>
<!-- Generator: Adobe Illustrator 16.0.0, SVG Export Plug-In . SVG Version: 6.00 Build 0)  -->
<!DOCTYPE svg PUBLIC "-//W3C//DTD SVG 1.1//EN" "http://www.w3.org/Graphics/SVG/1.1/DTD/svg11.dtd">
<svg version="1.1" xmlns="http://www.w3.org/2000/svg" xmlns:xlink="http://www.w3.org/1999/xlink" x="0px" y="0px" width="1024px"
	 height="1024px" viewBox="0 0 1024 1024" enable-background="new 0 0 1024 1024" xml:space="preserve">
<g id="Layer_13">
	<polyline fill="none" stroke="#010101" stroke-width="0" stroke-linecap="square" stroke-miterlimit="10" points="407.881,572.001 
		403.456,575.71 399.253,579.64 395.271,583.849 391.454,588.221 387.915,592.761 384.652,597.467 381.609,602.394 378.789,607.486 
		376.3,612.635 374.033,618.003 372.096,623.43 370.438,628.965 369.054,634.557 368.004,640.259 367.229,645.961 366.732,651.718 
		366.566,657.475 366.732,663.288 367.119,669.045 367.893,674.747 368.944,680.449 370.271,686.04 371.875,691.575 
		373.812,697.057 376.023,702.371 378.513,707.631 381.222,712.667 384.265,717.594 387.527,722.354 391.067,726.95 
		394.773,731.324 398.754,735.531 402.958,739.517 407.328,743.225 411.918,746.769 416.675,749.979 421.597,753.025 
		426.686,755.736 431.939,758.228 437.25,760.387 	"/>
	<polyline fill="none" stroke="#010101" stroke-width="0" stroke-linecap="square" stroke-miterlimit="10" points="407.881,572.001 
		409.098,570.563 410.204,569.067 411.31,567.571 412.361,565.967 413.356,564.417 414.241,562.757 415.126,561.096 415.956,559.38 
		416.675,557.663 417.394,555.948 418.002,554.177 418.555,552.35 419.053,550.577 419.495,548.75 419.883,546.868 420.159,545.042 
		420.38,543.16 420.546,541.276 420.657,539.45 420.712,537.567 420.712,535.687 420.602,533.804 420.436,531.922 420.215,530.039 
		419.938,528.212 419.551,526.386 419.108,524.503 418.666,522.731 418.113,520.904 417.504,519.135 416.786,517.418 
		416.066,515.647 415.292,513.986 414.407,512.324 	"/>
	<polyline fill="none" stroke="#010101" stroke-width="0" stroke-linecap="square" stroke-miterlimit="10" points="466.618,420.761 
		463.963,420.872 461.364,421.093 458.708,421.426 456.109,421.868 453.566,422.478 451.021,423.142 448.477,423.917 
		446.043,424.803 443.554,425.799 441.176,426.906 438.854,428.124 436.531,429.397 434.318,430.781 432.162,432.276 
		430.06,433.881 428.013,435.542 426.022,437.313 424.141,439.14 422.371,441.078 420.657,443.07 418.998,445.119 417.449,447.278 
		416.011,449.492 414.628,451.762 413.412,454.087 412.25,456.413 411.199,458.848 410.259,461.339 409.374,463.831 
		408.655,466.321 408.046,468.924 407.494,471.47 407.106,474.126 406.83,476.729 406.664,479.331 406.553,481.988 406.608,484.646 
		406.775,487.247 407.051,489.904 407.438,492.505 407.936,495.108 408.544,497.655 409.263,500.201 410.093,502.692 
		410.978,505.183 412.028,507.62 413.19,510 414.407,512.324 	"/>
	
		<line fill="none" stroke="#010101" stroke-width="0" stroke-linecap="square" stroke-miterlimit="10" x1="466.618" y1="420.761" x2="492.778" y2="419.488"/>
	<polyline fill="none" stroke="#010101" stroke-width="0" stroke-linecap="square" stroke-miterlimit="10" points="586.138,760.387 
		592.389,757.785 598.472,754.795 604.39,751.475 610.03,747.71 615.507,743.668 620.649,739.24 625.573,734.535 630.162,729.552 
		634.422,724.293 638.349,718.757 641.944,713 645.152,707.02 648.026,700.821 650.517,694.511 652.563,688.032 654.223,681.445 
		655.492,674.747 656.324,667.994 656.767,661.238 656.767,654.431 656.324,647.676 655.492,640.922 654.223,634.224 
		652.563,627.637 650.517,621.16 648.026,614.848 645.207,608.649 641.944,602.67 638.349,596.913 634.422,591.376 630.162,586.117 
		625.573,581.135 620.649,576.43 615.507,572.001 	"/>
	<polyline fill="none" stroke="#010101" stroke-width="0" stroke-linecap="square" stroke-miterlimit="10" points="608.98,512.324 
		606.822,516.753 605.165,521.348 603.891,526.054 603.063,530.926 602.674,535.796 602.731,540.723 603.283,545.595 
		604.278,550.41 605.716,555.117 607.543,559.655 609.81,564.03 612.466,568.126 615.507,572.001 	"/>
	<polyline fill="none" stroke="#010101" stroke-width="0" stroke-linecap="square" stroke-miterlimit="10" points="608.98,512.324 
		611.357,507.62 613.295,502.692 614.842,497.655 615.949,492.505 616.613,487.247 616.779,481.988 616.557,476.729 615.839,471.47 
		614.732,466.321 613.128,461.339 611.137,456.413 608.703,451.762 605.882,447.278 602.731,443.07 599.19,439.14 595.375,435.542 
		591.226,432.276 586.802,429.397 582.155,426.906 577.343,424.803 572.367,423.142 567.223,421.868 562.023,421.093 
		556.769,420.761 	"/>
	
		<line fill="none" stroke="#010101" stroke-width="0" stroke-linecap="square" stroke-miterlimit="10" x1="556.769" y1="420.761" x2="530.61" y2="419.488"/>
	<polyline fill="none" stroke="#010101" stroke-width="0" stroke-linecap="square" stroke-miterlimit="10" points="496.871,197.223 
		496.871,196.504 496.871,195.839 496.815,195.175 496.761,194.511 496.649,193.846 496.595,193.182 496.429,192.518 
		496.318,191.854 496.152,191.189 495.986,190.525 495.765,189.86 495.544,189.252 495.268,188.587 495.045,187.979 494.77,187.37 
		494.438,186.76 494.106,186.151 493.774,185.543 493.442,184.989 493.054,184.436 492.668,183.882 492.28,183.328 491.838,182.831 
		491.396,182.276 490.953,181.778 490.456,181.28 490.013,180.836 489.515,180.394 488.962,179.952 488.465,179.508 
		487.911,179.066 487.358,178.678 	"/>
	
		<line fill="none" stroke="#010101" stroke-width="0" stroke-linecap="square" stroke-miterlimit="10" x1="492.778" y1="419.488" x2="496.871" y2="197.223"/>
	
		<line fill="none" stroke="#010101" stroke-width="0" stroke-linecap="square" stroke-miterlimit="10" x1="530.61" y1="419.488" x2="526.517" y2="197.223"/>
	<polyline fill="none" stroke="#010101" stroke-width="0" stroke-linecap="square" stroke-miterlimit="10" points="535.974,178.678 
		533.872,180.394 531.937,182.276 530.276,184.436 528.894,186.76 527.844,189.252 527.068,191.854 526.627,194.511 
		526.517,197.223 	"/>
	<path fill="none" stroke="#010101" stroke-width="0" stroke-linecap="square" stroke-miterlimit="10" d="M487.358,178.678
		c-1.9-42.268-8.506-59.001-19.205-78.345"/>
	<path fill="none" stroke="#010101" stroke-width="0" stroke-linecap="square" stroke-miterlimit="10" d="M555.831,101.5"/>
	<path fill="none" stroke="#010101" stroke-width="0" stroke-linecap="square" stroke-miterlimit="10" d="M535.973,178.678"/>
	<path fill="none" stroke="#010101" stroke-width="0" stroke-linecap="square" stroke-miterlimit="10" d="M555.831,101.5"/>
	<path fill="none" stroke="#010101" stroke-width="0" stroke-linecap="square" stroke-miterlimit="10" d="M467.5,101.5"/>
	<polyline fill="none" stroke="#010101" stroke-width="0" stroke-linecap="square" stroke-miterlimit="10" points="555.42,100.518 
		555.113,100.333 554.807,100.15 554.5,99.966 554.193,99.782 553.889,99.66 553.582,99.475 553.275,99.291 552.971,99.108 
		552.664,98.923 552.357,98.801 552.051,98.617 551.746,98.434 551.439,98.25 551.133,98.127 550.826,97.943 550.52,97.759 
		550.213,97.637 549.908,97.453 549.539,97.331 549.234,97.146 548.928,97.024 548.623,96.84 548.316,96.718 548.01,96.533 
		547.643,96.411 547.336,96.227 547.029,96.105 546.725,95.981 546.418,95.798 546.049,95.675 545.742,95.552 545.438,95.369 
		545.131,95.245 544.764,95.124 544.457,95.001 544.15,94.817 543.783,94.695 543.479,94.572 543.172,94.45 542.865,94.327 
		542.496,94.204 542.191,94.082 541.824,93.959 541.518,93.836 541.211,93.713 540.844,93.591 540.537,93.469 540.232,93.346 
		539.863,93.223 539.559,93.101 539.191,92.978 538.885,92.855 538.516,92.733 538.211,92.671 537.904,92.549 537.537,92.427 
		537.23,92.304 536.863,92.243 536.557,92.12 536.189,91.997 535.883,91.936 535.516,91.813 535.211,91.69 534.842,91.63 
		534.537,91.507 534.17,91.446 533.863,91.323 533.494,91.262 533.189,91.14 532.822,91.078 532.453,90.955 532.148,90.894 
		531.781,90.833 531.475,90.71 531.107,90.649 530.801,90.588 530.434,90.465 530.066,90.404 529.76,90.342 529.393,90.281 
		529.086,90.22 528.719,90.097 528.352,90.036 528.045,89.974 527.68,89.913 527.373,89.853 527.004,89.791 526.639,89.729 
		526.332,89.668 525.963,89.607 525.596,89.546 525.291,89.484 524.922,89.423 524.555,89.361 524.248,89.3 523.881,89.3 
		523.514,89.24 523.207,89.178 522.84,89.117 522.473,89.055 522.166,89.055 521.799,88.994 521.432,88.933 521.064,88.933 
		520.758,88.872 520.391,88.81 520.023,88.81 519.717,88.749 519.35,88.749 518.982,88.688 518.676,88.688 518.309,88.626 
		517.941,88.626 517.572,88.565 517.268,88.565 516.9,88.565 516.531,88.503 516.227,88.503 515.859,88.503 515.49,88.503 
		515.125,88.442 514.818,88.442 514.449,88.442 514.084,88.442 513.715,88.442 513.408,88.381 513.043,88.381 512.673,88.381 
		512.307,88.381 512.001,88.381 511.632,88.381 511.266,88.381 510.96,88.381 510.592,88.381 510.225,88.381 509.856,88.381 
		509.551,88.442 509.184,88.442 508.816,88.442 508.449,88.442 508.143,88.442 507.775,88.503 507.408,88.503 507.102,88.503 
		506.734,88.503 506.367,88.565 505.999,88.565 505.693,88.565 505.325,88.626 504.958,88.626 504.651,88.688 504.284,88.688 
		503.917,88.749 503.549,88.749 503.243,88.81 502.875,88.81 502.508,88.872 502.202,88.933 501.836,88.933 501.467,88.994 
		501.161,89.055 500.794,89.055 500.426,89.117 500.06,89.178 499.753,89.24 499.385,89.3 499.019,89.3 498.712,89.361 
		498.343,89.423 497.978,89.484 497.671,89.546 497.304,89.607 496.936,89.668 496.63,89.729 496.262,89.791 495.956,89.853 
		495.588,89.913 495.221,89.974 494.915,90.036 494.547,90.097 494.18,90.22 493.874,90.281 493.506,90.342 493.2,90.404 
		492.833,90.465 492.465,90.588 492.159,90.649 491.792,90.71 491.485,90.833 491.118,90.894 490.812,90.955 490.444,91.078 
		490.139,91.14 489.771,91.262 489.403,91.323 489.098,91.446 488.73,91.507 488.424,91.63 488.056,91.69 487.75,91.813 
		487.382,91.936 487.076,91.997 486.708,92.12 486.403,92.243 486.036,92.304 485.729,92.427 485.362,92.549 485.055,92.671 
		484.75,92.733 484.382,92.855 484.076,92.978 483.708,93.101 483.402,93.223 483.035,93.346 482.728,93.469 482.422,93.591 
		482.055,93.713 481.749,93.836 481.442,93.959 481.075,94.082 480.769,94.204 480.463,94.327 480.095,94.45 479.789,94.572 
		479.482,94.695 479.115,94.817 478.809,95.001 478.503,95.124 478.136,95.245 477.829,95.369 477.523,95.552 477.217,95.675 
		476.85,95.798 476.543,95.981 476.237,96.105 475.931,96.227 475.625,96.411 475.257,96.533 474.951,96.718 474.645,96.84 
		474.339,97.024 474.033,97.146 473.726,97.331 473.359,97.453 473.052,97.637 472.747,97.759 472.44,97.943 472.134,98.127 
		471.828,98.25 471.522,98.434 471.215,98.617 470.909,98.801 470.604,98.923 470.297,99.108 469.991,99.291 469.685,99.475 
		469.378,99.66 469.072,99.782 468.766,99.966 468.46,100.15 468.153,100.333 467.847,100.518 	"/>
	<path fill="none" stroke="#010101" stroke-width="0" stroke-linecap="square" stroke-miterlimit="10" d="M535.974,178.678
		c1.9-42.268,8.506-59.001,19.204-78.345"/>
</g>
<g id="Layer_8" display="none">
	<path display="inline" fill="#689F42" d="M221,660.999c-21.333-20-181.333-234-15.711-482.134
		c92.51-134.64,298.068-133.617,306.377-133.617V208C388.33,206.91,342.711,230.564,309,259c-168,154-54,426,139.723,465.527
		l-13.721,39.981C318.373,757.262,247.716,690.907,221,660.999z"/>
	<path display="inline" fill="#689F42" d="M802.332,660.999c21.334-20,181.334-234,15.711-482.134
		C725.533,44.225,519.975,45.249,511.666,45.249V208c123.336-1.09,168.955,22.564,202.666,51c168,154,54,426-139.723,465.527
		l13.721,39.981C704.959,757.262,775.616,690.907,802.332,660.999z"/>
</g>
<g id="Layer_10" display="none">
	<path display="inline" fill="none" stroke="#ED1C24" stroke-width="2" stroke-miterlimit="10" d="M184.052,608.249
		c-7.87-14.017-16.014-30.476-23.488-49.05"/>
	<path display="inline" fill="none" stroke="#ED1C24" stroke-width="2" stroke-miterlimit="10" d="M289.813,621.469
		c1.517,1.981,3.058,3.943,4.623,5.886"/>
	<path display="inline" fill="none" stroke="#ED1C24" stroke-width="2" stroke-miterlimit="10" d="M261.385,576.858
		c8.18,15.647,17.706,30.604,28.428,44.61"/>
	<line display="inline" fill="none" x1="184.058" y1="608.254" x2="294.432" y2="627.35"/>
</g>
<g id="Layer_2">
	<circle fill="#2D3079" cx="512" cy="511.908" r="512"/>
</g>
<g id="Layer_3">
	<circle fill="#FFFFFF" cx="132.908" cy="691.552" r="23.563"/>
	<circle fill="#FFFFFF" cx="184.058" cy="748.356" r="8.046"/>
	<circle fill="#FFFFFF" cx="309.494" cy="429.919" r="8.046"/>
	<circle fill="#FFFFFF" cx="888.805" cy="236.816" r="8.046"/>
	<circle fill="#FFFFFF" cx="896.851" cy="624.321" r="8.046"/>
	<circle fill="#FFFFFF" cx="476.012" cy="941.563" r="8.046"/>
	<circle fill="#FFFFFF" cx="508.966" cy="957.655" r="8.046"/>
	<circle fill="#FFFFFF" cx="142.555" cy="616.393" r="6.707"/>
	<circle fill="#FFFFFF" cx="319.54" cy="467" r="6.707"/>
	<circle fill="#FFFFFF" cx="277.248" cy="447.988" r="5.353"/>
	<circle fill="#FFFFFF" cx="939.533" cy="487.798" r="14.3"/>
	<circle fill="#FFFFFF" cx="847.578" cy="713.599" r="3.786"/>
</g>
<g id="Layer_5">
	<path fill="#679F42" d="M439.571,774.049c-149.46-49.559-268.063,49.549-298.921,139.616
		c84.18,66.785,263.893,81.01,358.259-74.764"/>
	<path fill="#679F42" d="M583.762,774.049c149.46-49.559,268.063,49.549,298.921,139.616
		c-84.181,66.785-263.894,81.01-358.259-74.764"/>
</g>
<g id="Layer_6">
	<path fill="#FED600" d="M339.455,955.944l22.57-195.127c-15.451-0.12-30.375,1.302-44.689,4.036v0.002L294.48,961.233
		c14.891-0.399,29.967-2.107,44.975-5.286"/>
	<path fill="#FED600" d="M683.877,955.944l-22.569-195.127c15.45-0.12,30.375,1.302,44.689,4.036v0.002l22.854,196.378
		c-14.891-0.399-29.967-2.107-44.975-5.286"/>
</g>
<g id="Layer_7">
	<path fill="#517737" d="M716,259c-210-178-407,0-407,0c40,74,85,154,111,183c14.167,36,159,139,318,64c-76.692-25-107-108-61-188
		L716,259z"/>
</g>
<g id="Layer_14">
	<path fill="#689F42" d="M511.666,127.484V208c123.336-1.09,168.955,22.564,202.666,51l73.258-116.223
		c-100.775-98.36-268.437-97.528-275.924-97.528V127.484z"/>
	<rect x="493.825" y="45.803" fill="#689F42" width="35.682" height="134.086"/>
	<path fill="#689F42" d="M512.15,128.547v80.516c-123.336-1.09-168.955,22.564-202.666,51l-73.257-116.223
		c100.774-98.36,268.436-97.528,275.923-97.528V128.547z"/>
</g>
<g id="Layer_15">
	<path fill="#F8971D" d="M555.178,100.333c-10.698,19.343-17.304,36.077-19.204,78.345l-2.102,1.716l-1.936,1.882l-1.66,2.16
		l-1.383,2.325l-1.05,2.492l-0.775,2.602l-0.441,2.657l-0.11,2.712l4.094,222.265l26.158,1.273l5.255,0.332l5.199,0.775l5.145,1.273
		l4.976,1.661l4.813,2.103l4.646,2.492l4.424,2.879l4.149,3.266l3.815,3.598l3.541,3.93l3.15,4.208l2.821,4.483l2.434,4.651
		l1.991,4.926l1.604,4.982l1.106,5.148l0.718,5.259l0.223,5.259l-0.166,5.259l-0.664,5.258l-1.107,5.15l-1.547,5.037l-1.938,4.927
		l-2.377,4.704l-2.158,4.429l-1.657,4.595l-1.274,4.706l-0.828,4.872l-0.389,4.87l0.058,4.927l0.552,4.872l0.995,4.815l1.438,4.707
		l1.827,4.538l2.267,4.375l2.656,4.096l3.041,3.875l5.143,4.429l4.924,4.705l4.589,4.982l4.26,5.259l3.927,5.537l3.596,5.757
		l3.263,5.979l2.819,6.198l2.49,6.313l2.046,6.477l1.66,6.587l1.27,6.698l0.832,6.754l0.442,6.755v6.808l-0.442,6.756l-0.832,6.753
		l-1.27,6.698l-1.66,6.587l-2.046,6.479l-2.49,6.311l-2.874,6.198l-3.208,5.98l-3.596,5.757l-3.927,5.536l-4.26,5.259l-4.589,4.983
		l-4.924,4.705l-5.143,4.428l-5.477,4.042l-5.641,3.765l-5.918,3.32l-6.083,2.99l-6.251,2.602H437.25l-5.31-2.159l-5.253-2.491
		l-5.089-2.711l-4.922-3.046l-4.756-3.211l-4.591-3.544l-4.37-3.708l-4.204-3.985l-3.981-4.207l-3.706-4.374l-3.54-4.596
		l-3.263-4.761l-3.042-4.927l-2.709-5.036l-2.489-5.26l-2.212-5.314l-1.936-5.481l-1.604-5.535l-1.328-5.591l-1.051-5.702
		l-0.774-5.702l-0.387-5.757l-0.166-5.813l0.166-5.757l0.498-5.757l0.774-5.702l1.05-5.702l1.383-5.592l1.659-5.535l1.937-5.427
		l2.268-5.368l2.489-5.148l2.82-5.093l3.042-4.927l3.263-4.706l3.539-4.54l3.816-4.372l3.982-4.209l4.203-3.93l4.425-3.709
		l1.216-1.438l1.106-1.495l1.106-1.496l1.051-1.604l0.996-1.55l0.885-1.66l0.885-1.661l0.83-1.716l0.719-1.717l0.719-1.715
		l0.608-1.771l0.553-1.827l0.498-1.772l0.442-1.827l0.388-1.882l0.276-1.826l0.221-1.882l0.167-1.884l0.111-1.826l0.055-1.883
		v-1.881l-0.11-1.883l-0.167-1.882l-0.221-1.883l-0.277-1.827l-0.387-1.826l-0.442-1.883l-0.443-1.771l-0.553-1.827l-0.609-1.77
		l-0.718-1.717l-0.719-1.771l-0.775-1.661l-0.884-1.663L413.19,510l-1.162-2.38l-1.05-2.437l-0.885-2.491l-0.83-2.492l-0.719-2.545
		l-0.608-2.547l-0.498-2.603l-0.387-2.602l-0.276-2.657l-0.167-2.602l-0.055-2.657l0.111-2.658l0.166-2.602l0.277-2.603l0.387-2.657
		l0.553-2.546l0.609-2.603l0.719-2.491l0.885-2.492l0.94-2.491l1.051-2.436l1.161-2.325l1.217-2.326l1.382-2.27l1.438-2.214
		l1.548-2.159l1.66-2.049l1.714-1.993l1.77-1.938l1.881-1.827l1.991-1.771l2.047-1.661l2.102-1.604l2.157-1.495l2.212-1.384
		l2.323-1.273l2.322-1.218l2.378-1.107l2.489-0.996l2.433-0.886l2.544-0.775l2.545-0.664l2.543-0.61l2.6-0.442l2.655-0.333
		l2.599-0.222l2.655-0.11l26.161-1.273l4.092-222.265v-0.719v-0.665l-0.055-0.664l-0.055-0.664l-0.111-0.665l-0.054-0.665
		l-0.166-0.664l-0.111-0.665l-0.166-0.664l-0.166-0.665l-0.221-0.665l-0.221-0.608l-0.276-0.665l-0.222-0.609l-0.276-0.608
		l-0.332-0.61l-0.332-0.609l-0.332-0.608l-0.332-0.554l-0.388-0.553l-0.386-0.554l-0.388-0.554l-0.442-0.498l-0.443-0.555
		l-0.442-0.498l-0.498-0.499l-0.443-0.443l-0.498-0.442l-0.553-0.442l-0.497-0.443l-0.554-0.442l-0.553-0.388
		c-1.9-42.268-8.506-59.001-19.205-78.345h0.032l0.307-0.183l0.306-0.185l0.307-0.184l0.306-0.122l0.307-0.185l0.306-0.184
		l0.306-0.183l0.307-0.185l0.306-0.122l0.306-0.184l0.307-0.183l0.306-0.185l0.306-0.122l0.307-0.184l0.306-0.185l0.306-0.122
		l0.307-0.184l0.367-0.122l0.307-0.185l0.306-0.122l0.306-0.184l0.307-0.122l0.306-0.185l0.368-0.122l0.306-0.184l0.307-0.122
		l0.306-0.124l0.306-0.183l0.368-0.123l0.306-0.124l0.306-0.183l0.307-0.124l0.367-0.122l0.306-0.122l0.307-0.185l0.367-0.122
		l0.307-0.123l0.306-0.122l0.368-0.123l0.306-0.123l0.307-0.123l0.367-0.123l0.306-0.123l0.306-0.123l0.367-0.122l0.306-0.123
		l0.307-0.123l0.367-0.123l0.307-0.123l0.367-0.123l0.307-0.123l0.367-0.122l0.306-0.062l0.307-0.123l0.367-0.122l0.307-0.123
		l0.367-0.062l0.306-0.123l0.368-0.123l0.306-0.061l0.368-0.123l0.306-0.123l0.368-0.061l0.306-0.123l0.368-0.061l0.306-0.123
		l0.368-0.061l0.368-0.123l0.306-0.062l0.367-0.123l0.307-0.061l0.367-0.062l0.307-0.122l0.367-0.062l0.306-0.061l0.368-0.123
		l0.368-0.061l0.306-0.062l0.367-0.061l0.307-0.062l0.367-0.123l0.368-0.061l0.306-0.062l0.367-0.061l0.368-0.061l0.306-0.062
		l0.368-0.061l0.306-0.062l0.368-0.061l0.367-0.061l0.307-0.062l0.366-0.061l0.369-0.062l0.307-0.061h0.366l0.369-0.061l0.306-0.062
		l0.366-0.061l0.369-0.062h0.366l0.306-0.061l0.369-0.062h0.366l0.307-0.061l0.367-0.062h0.368l0.306-0.061h0.368l0.367-0.061h0.367
		l0.307-0.062h0.367l0.368-0.061h0.306h0.368l0.367-0.062h0.368h0.306h0.368l0.367-0.061h0.306h0.368h0.367h0.368l0.305-0.061h0.369
		h0.367h0.368h0.306h0.366h0.369h0.306h0.366h0.37h0.365l0.307,0.061h0.369h0.365h0.369h0.307l0.365,0.061h0.369h0.367h0.305
		l0.369,0.062h0.367h0.305l0.369,0.061h0.367l0.367,0.062h0.307l0.367,0.061h0.367l0.307,0.061h0.367l0.367,0.062l0.307,0.061h0.367
		l0.367,0.062l0.367,0.061h0.307l0.367,0.062l0.367,0.061l0.307,0.062l0.367,0.061h0.367l0.307,0.061l0.367,0.062l0.369,0.061
		l0.305,0.062l0.367,0.061l0.369,0.061l0.307,0.062l0.365,0.061l0.369,0.062l0.307,0.061l0.365,0.061l0.307,0.062l0.367,0.061
		l0.367,0.123l0.307,0.062l0.367,0.061l0.307,0.062l0.367,0.061l0.367,0.123l0.307,0.061l0.367,0.062l0.307,0.122l0.367,0.062
		l0.305,0.061l0.369,0.123l0.367,0.062l0.305,0.123l0.369,0.061l0.307,0.123l0.367,0.061l0.305,0.123l0.369,0.061l0.305,0.123
		l0.367,0.123l0.307,0.061l0.367,0.123l0.307,0.123l0.367,0.062l0.307,0.123l0.367,0.122l0.307,0.123l0.305,0.062l0.369,0.122
		l0.307,0.123l0.367,0.123l0.305,0.123l0.369,0.123l0.305,0.123l0.307,0.123l0.367,0.122l0.307,0.123l0.307,0.123l0.367,0.123
		l0.305,0.123l0.369,0.123l0.307,0.123l0.307,0.122l0.305,0.123l0.367,0.122l0.307,0.185l0.307,0.122l0.367,0.122l0.307,0.124
		l0.305,0.183l0.307,0.124l0.369,0.123l0.307,0.183l0.305,0.124l0.307,0.122l0.307,0.184l0.367,0.122l0.307,0.185l0.307,0.122
		l0.305,0.184l0.307,0.122l0.305,0.185l0.369,0.122l0.305,0.184l0.307,0.122l0.307,0.185l0.307,0.184l0.307,0.122l0.307,0.185
		l0.305,0.183l0.307,0.184l0.307,0.122l0.307,0.185l0.305,0.183l0.307,0.184l0.307,0.185l0.305,0.122l0.307,0.184l0.307,0.185
		l0.307,0.183"/>
</g>
<g id="Layer_11">
	<path fill="#FED600" d="M289.813,621.469c-10.723-14.007-20.248-28.963-28.428-44.61l-0.001-0.005l-100.818-17.65l-0.001-0.004
		c7.474,18.574,15.618,35.033,23.488,49.05l0.005,0.005l110.375,19.096"/>
	<path fill="#679F42" d="M184.058,608.254l110.375,19.096l0.004,0.005c38.989,48.422,92.596,84.585,154.287,97.173l-13.721,39.981
		C318.373,757.262,247.716,690.907,221,660.999c-5.586-5.237-20.682-23.777-36.948-52.75"/>
	<path fill="#689F42" d="M261.385,576.858c-18.783-35.929-30.468-75.503-33.252-115.596c0,0-96.686-69.453-96.687-69.453
		c-3.127,65.117,11.035,122.448,29.118,167.39L261.385,576.858z"/>
	<path fill="#FED600" d="M228.133,461.263c-1.226-17.652-0.726-35.406,1.653-52.993c0,0-92.577-66.502-92.577-66.502
		c-3.132,17.117-4.984,33.821-5.762,50.042C131.447,391.81,228.133,461.263,228.133,461.263z"/>
	<path fill="#689F42" d="M277.472,293.383l-72.183-114.518c-37.859,56.721-58.704,111.658-68.08,162.902l92.577,66.502
		c5.443-40.232,20.723-79.594,47.684-114.889"/>
	<path fill="#FED600" d="M277.47,293.381C286.612,281.412,297.099,269.91,309,259l-73.257-116.223
		c-11.056,10.792-21.307,22.777-30.454,36.088l72.183,114.518"/>
	<path fill="#FED600" d="M733.519,621.469c10.723-14.007,20.248-28.963,28.429-44.61l0.001-0.005l100.817-17.65l0.002-0.004
		c-7.475,18.574-15.618,35.033-23.488,49.05l-0.005,0.005L728.9,627.35"/>
	<path fill="#679F42" d="M839.274,608.254L728.9,627.35l-0.004,0.005c-38.989,48.422-92.596,84.585-154.287,97.173l13.721,39.981
		c116.629-7.247,187.286-73.602,214.002-103.51c5.586-5.237,20.682-23.777,36.947-52.75"/>
	<path fill="#689F42" d="M761.947,576.858c18.782-35.929,30.467-75.503,33.252-115.596c0,0,96.686-69.453,96.687-69.453
		c3.128,65.117-11.035,122.448-29.118,167.39L761.947,576.858z"/>
	<path fill="#FED600" d="M795.199,461.263c1.226-17.652,0.727-35.406-1.653-52.993c-0.001,0,92.577-66.502,92.577-66.502
		c3.132,17.117,4.984,33.821,5.762,50.042L795.199,461.263z"/>
	<path fill="#689F42" d="M745.86,293.383l72.183-114.518c37.859,56.721,58.704,111.658,68.08,162.902l-92.577,66.502
		c-5.443-40.232-20.723-79.594-47.684-114.889"/>
	<path fill="#FED600" d="M745.862,293.381c-9.143-11.969-19.629-23.471-31.53-34.381l73.258-116.223
		c11.056,10.792,21.307,22.777,30.453,36.088L745.86,293.383"/>
</g>
<g id="Layer_4">
	<circle fill="#517737" cx="511.666" cy="769.743" r="77.5"/>
</g>
</svg>
