<?xml version="1.0" encoding="utf-8"?>
<!-- Generator: Adobe Illustrator 16.0.0, SVG Export Plug-In . SVG Version: 6.00 Build 0)  -->
<!DOCTYPE svg PUBLIC "-//W3C//DTD SVG 1.1//EN" "http://www.w3.org/Graphics/SVG/1.1/DTD/svg11.dtd">
<svg version="1.1" xmlns="http://www.w3.org/2000/svg" xmlns:xlink="http://www.w3.org/1999/xlink" x="0px" y="0px" width="1024px"
	 height="1024px" viewBox="0 0 1024 1024" enable-background="new 0 0 1024 1024" xml:space="preserve">
<g id="Livello_9">
	<circle fill="#2D3079" cx="511.666" cy="512" r="512"/>
</g>
<g id="Layer_3">
	<circle fill="#FFFFFF" cx="105.908" cy="691.552" r="23.563"/>
	<circle fill="#FFFFFF" cx="157.058" cy="748.356" r="8.046"/>
	<circle fill="#FFFFFF" cx="309.494" cy="429.919" r="8.046"/>
	<circle fill="#FFFFFF" cx="888.805" cy="236.816" r="8.046"/>
	<circle fill="#FFFFFF" cx="907.851" cy="664.321" r="8.046"/>
	<circle fill="#FFFFFF" cx="180.617" cy="204.892" r="8.046"/>
	<circle fill="#FFFFFF" cx="157.183" cy="245.644" r="8.046"/>
	<circle fill="#FFFFFF" cx="115.555" cy="616.393" r="6.707"/>
	<circle fill="#FFFFFF" cx="319.54" cy="467" r="6.707"/>
	<circle fill="#FFFFFF" cx="277.248" cy="447.988" r="5.353"/>
	<circle fill="#FFFFFF" cx="927.355" cy="597.297" r="14.3"/>
	<circle fill="#FFFFFF" cx="858.578" cy="753.599" r="3.786"/>
</g>
<g id="Layer_7">
</g>
<g id="Layer_15">
</g>
<g id="Layer_11">
</g>
<g id="Layer_5">
</g>
<g id="Layer_6">
</g>
<g id="Layer_4">
	<g>
		<rect x="493.825" y="111.558" fill="#689F42" width="35.682" height="134.086"/>
		<path fill="#517737" d="M716,324.755c-210-178-407,0-407,0c40,74,85,154,111,183c14.167,36,159,139,318,64
			c-76.692-25-107-108-61-188L716,324.755z"/>
		<path fill="#689F42" d="M511.666,193.239v80.516c123.336-1.09,168.955,22.564,202.666,51l73.258-116.223
			c-100.775-98.36-268.437-97.528-275.924-97.528V193.239z"/>
		<path fill="#689F42" d="M511.666,193.239v80.516c-123.336-1.09-168.955,22.564-202.666,51l-73.258-116.223
			c100.775-98.36,268.437-97.528,275.924-97.528V193.239z"/>
		<path fill="#F8971D" d="M555.178,166.088c-10.698,19.343-17.304,36.077-19.204,78.345l-2.102,1.716l-1.936,1.882l-1.66,2.16
			l-1.383,2.325l-1.05,2.492l-0.775,2.602l-0.441,2.657l-0.11,2.712l4.094,222.265l26.158,1.273l5.255,0.332l5.199,0.775
			l5.145,1.273l4.976,1.661l4.813,2.103l4.646,2.492l4.424,2.879l4.149,3.266l3.815,3.598l3.541,3.93l3.15,4.208l2.821,4.483
			l2.434,4.65l1.991,4.927l1.604,4.982l1.106,5.148l0.718,5.259l0.223,5.26l-0.166,5.259l-0.664,5.258l-1.107,5.15l-1.547,5.037
			l-1.938,4.927l-2.377,4.704l-2.158,4.43l-1.657,4.595l-1.274,4.706l-0.828,4.872l-0.389,4.87l0.058,4.927l0.552,4.872l0.995,4.815
			l1.438,4.707l1.827,4.538l2.267,4.375l2.656,4.096l3.041,3.875l5.143,4.429l4.924,4.705l4.589,4.982l4.26,5.259l3.927,5.537
			l3.596,5.757l3.263,5.979l2.819,6.198l2.49,6.313l2.046,6.477l1.66,6.587l1.27,6.698l0.832,6.754l0.442,6.755v6.808l-0.442,6.756
			l-0.832,6.753l-1.27,6.698l-1.66,6.587l-2.046,6.479l-2.49,6.311l-2.874,6.198l-3.208,5.98l-3.596,5.757l-3.927,5.536l-4.26,5.259
			l-4.589,4.983l-4.924,4.705l-5.143,4.428l-5.477,4.042l-5.641,3.765l-5.918,3.32l-6.083,2.99l-6.251,2.602H437.25l-5.31-2.159
			l-5.253-2.491l-5.089-2.711l-4.922-3.046l-4.756-3.211l-4.591-3.544l-4.37-3.708l-4.204-3.985l-3.981-4.207l-3.706-4.374
			l-3.54-4.596l-3.263-4.761l-3.042-4.927l-2.709-5.036l-2.489-5.26l-2.212-5.314l-1.936-5.481l-1.604-5.535l-1.328-5.591
			l-1.051-5.702l-0.774-5.702l-0.387-5.757l-0.166-5.813l0.166-5.757l0.498-5.757l0.774-5.702l1.05-5.702l1.383-5.592l1.659-5.535
			l1.937-5.427l2.268-5.368l2.489-5.148l2.82-5.093l3.042-4.927l3.263-4.706l3.539-4.54l3.816-4.372l3.982-4.209l4.203-3.93
			l4.425-3.709l1.216-1.438l1.106-1.495l1.106-1.496l1.051-1.604l0.996-1.55l0.885-1.66l0.885-1.661l0.83-1.716l0.719-1.717
			l0.719-1.715l0.608-1.771l0.553-1.827l0.498-1.772l0.442-1.827l0.388-1.882l0.276-1.826l0.221-1.882l0.167-1.884l0.111-1.826
			l0.055-1.883v-1.881l-0.11-1.883l-0.167-1.882l-0.221-1.883l-0.277-1.827l-0.387-1.826l-0.442-1.883l-0.443-1.771l-0.553-1.827
			l-0.609-1.77l-0.718-1.717l-0.719-1.771l-0.775-1.661l-0.884-1.663l-1.217-2.323l-1.162-2.381l-1.05-2.437l-0.885-2.49
			l-0.83-2.492l-0.719-2.545l-0.608-2.547l-0.498-2.604l-0.387-2.602l-0.276-2.656l-0.167-2.602l-0.055-2.657l0.111-2.658
			l0.166-2.602l0.277-2.603l0.387-2.656l0.553-2.546l0.609-2.603l0.719-2.491l0.885-2.491l0.94-2.491l1.051-2.436l1.161-2.325
			l1.217-2.325l1.382-2.27l1.438-2.214l1.548-2.159l1.66-2.049l1.714-1.993l1.77-1.938l1.881-1.827l1.991-1.771l2.047-1.661
			l2.102-1.604l2.157-1.495l2.212-1.384l2.323-1.273l2.322-1.218l2.378-1.107l2.489-0.996l2.433-0.886l2.544-0.775l2.545-0.664
			l2.543-0.61l2.6-0.442l2.655-0.333l2.599-0.222l2.655-0.11l26.161-1.273l4.092-222.265v-0.719v-0.665l-0.055-0.664l-0.055-0.664
			l-0.111-0.665l-0.054-0.665l-0.166-0.664l-0.111-0.665l-0.166-0.664l-0.166-0.665l-0.221-0.665l-0.221-0.608l-0.276-0.665
			l-0.222-0.609l-0.276-0.608l-0.332-0.61l-0.332-0.609l-0.332-0.608l-0.332-0.554l-0.388-0.553l-0.386-0.554l-0.388-0.554
			l-0.442-0.498l-0.443-0.555l-0.442-0.498l-0.498-0.499l-0.443-0.443l-0.498-0.442l-0.553-0.442l-0.497-0.443l-0.554-0.442
			l-0.553-0.388c-1.9-42.268-8.506-59.001-19.205-78.345h0.032l0.307-0.183l0.306-0.185l0.307-0.184l0.306-0.122l0.307-0.185
			l0.306-0.184l0.306-0.183l0.307-0.185l0.306-0.122l0.306-0.184l0.307-0.183l0.306-0.185l0.306-0.122l0.307-0.184l0.306-0.185
			l0.306-0.122l0.307-0.184l0.367-0.122l0.307-0.185l0.306-0.122l0.306-0.184l0.307-0.122l0.306-0.185l0.368-0.122l0.306-0.184
			l0.307-0.122l0.306-0.124l0.306-0.183l0.368-0.123l0.306-0.124l0.306-0.183l0.307-0.124l0.367-0.122l0.306-0.122l0.307-0.185
			l0.367-0.122l0.307-0.123l0.306-0.122l0.368-0.123l0.306-0.123l0.307-0.123l0.367-0.123l0.306-0.123l0.306-0.123l0.367-0.122
			l0.306-0.123l0.307-0.123l0.367-0.123l0.307-0.123l0.367-0.123l0.307-0.123l0.367-0.122l0.306-0.062l0.307-0.123l0.367-0.122
			l0.307-0.123l0.367-0.062l0.306-0.123l0.368-0.123l0.306-0.061l0.368-0.123l0.306-0.123l0.368-0.061l0.306-0.123l0.368-0.061
			l0.306-0.123l0.368-0.061l0.368-0.123l0.306-0.062l0.367-0.123l0.307-0.061l0.367-0.062l0.307-0.122l0.367-0.062l0.306-0.061
			l0.368-0.123l0.368-0.061l0.306-0.062l0.367-0.061l0.307-0.062l0.367-0.123l0.368-0.061l0.306-0.062l0.367-0.061l0.368-0.061
			l0.306-0.062l0.368-0.061l0.306-0.062l0.368-0.061l0.367-0.061l0.307-0.062l0.366-0.061l0.369-0.062l0.307-0.061h0.366
			l0.369-0.061l0.306-0.062l0.366-0.061l0.369-0.062h0.366l0.306-0.061l0.369-0.062h0.366l0.307-0.061l0.367-0.062h0.368
			l0.306-0.061h0.368l0.367-0.061h0.367l0.307-0.062h0.367l0.368-0.061h0.306h0.368l0.367-0.062h0.368h0.306h0.368l0.367-0.061
			h0.306h0.368h0.367h0.368l0.305-0.061h0.369h0.367h0.368h0.306h0.366h0.369h0.306h0.366h0.37h0.365l0.307,0.061h0.369h0.365h0.369
			h0.307l0.365,0.061h0.369h0.367h0.305l0.369,0.062h0.367h0.305l0.369,0.061h0.367l0.367,0.062h0.307l0.367,0.061h0.367
			l0.307,0.061h0.367l0.367,0.062l0.307,0.061h0.367l0.367,0.062l0.367,0.061h0.307l0.367,0.062l0.367,0.061l0.307,0.062
			l0.367,0.061h0.367l0.307,0.061l0.367,0.062l0.369,0.061l0.305,0.062l0.367,0.061l0.369,0.061l0.307,0.062l0.365,0.061
			l0.369,0.062l0.307,0.061l0.365,0.061l0.307,0.062l0.367,0.061l0.367,0.123l0.307,0.062l0.367,0.061l0.307,0.062l0.367,0.061
			l0.367,0.123l0.307,0.061l0.367,0.062l0.307,0.122l0.367,0.062l0.305,0.061l0.369,0.123l0.367,0.062l0.305,0.123l0.369,0.061
			l0.307,0.123l0.367,0.061l0.305,0.123l0.369,0.061l0.305,0.123l0.367,0.123l0.307,0.061l0.367,0.123l0.307,0.123l0.367,0.062
			l0.307,0.123l0.367,0.122l0.307,0.123l0.305,0.062l0.369,0.122l0.307,0.123l0.367,0.123l0.305,0.123l0.369,0.123l0.305,0.123
			l0.307,0.123l0.367,0.122l0.307,0.123l0.307,0.123l0.367,0.123l0.305,0.123l0.369,0.123l0.307,0.123l0.307,0.122l0.305,0.123
			l0.367,0.122l0.307,0.185l0.307,0.122l0.367,0.122l0.307,0.124l0.305,0.183l0.307,0.124l0.369,0.123l0.307,0.183l0.305,0.124
			l0.307,0.122l0.307,0.184l0.367,0.122l0.307,0.185l0.307,0.122l0.305,0.184l0.307,0.122l0.305,0.185l0.369,0.122l0.305,0.184
			l0.307,0.122l0.307,0.185l0.307,0.184l0.307,0.122l0.307,0.185l0.305,0.183l0.307,0.184l0.307,0.122l0.307,0.185l0.305,0.183
			l0.307,0.184l0.307,0.185l0.305,0.122l0.307,0.184l0.307,0.185l0.307,0.183"/>
		<path fill="#FED600" d="M289.813,687.224c-10.723-14.007-20.248-28.963-28.428-44.61l-0.001-0.005l-100.818-17.65l-0.001-0.004
			c7.474,18.574,15.618,35.033,23.488,49.05l0.005,0.005l110.375,19.096"/>
		<path fill="#517737" d="M184.058,674.009l110.375,19.096l0.004,0.005c38.989,48.422,92.596,84.585,154.287,97.173l-13.721,39.981
			C318.373,823.017,247.716,756.662,221,726.754c-5.586-5.237-20.682-23.777-36.948-52.75"/>
		<path fill="#689F42" d="M261.385,642.613c-18.783-35.929-30.468-75.503-33.252-115.596c0,0-96.686-69.453-96.686-69.453
			c-3.128,65.117,11.035,122.448,29.118,167.39L261.385,642.613z"/>
		<path fill="#FED600" d="M228.133,527.018c-1.226-17.652-0.726-35.406,1.653-52.993c0,0-92.577-66.502-92.577-66.502
			c-3.132,17.117-4.984,33.821-5.762,50.042C131.447,457.564,228.133,527.018,228.133,527.018z"/>
		<path fill="#689F42" d="M277.472,359.138L205.289,244.62c-37.859,56.721-58.704,111.658-68.08,162.902l92.577,66.502
			c5.443-40.232,20.723-79.594,47.684-114.889"/>
		<path fill="#FED600" d="M277.47,359.136c9.143-11.969,19.629-23.471,31.53-34.381l-73.257-116.223
			c-11.056,10.792-21.307,22.777-30.454,36.088l72.183,114.518"/>
		<path fill="#FED600" d="M733.519,687.224c10.723-14.007,20.248-28.963,28.429-44.61l0.001-0.005l100.817-17.65l0.002-0.004
			c-7.475,18.574-15.618,35.033-23.488,49.05l-0.005,0.005L728.9,693.104"/>
		<path fill="#517737" d="M839.274,674.009L728.9,693.104l-0.004,0.005c-38.989,48.422-92.596,84.585-154.287,97.173l13.721,39.981
			c116.629-7.247,187.286-73.602,214.002-103.51c5.586-5.237,20.682-23.777,36.947-52.75"/>
		<path fill="#689F42" d="M761.947,642.613c18.782-35.929,30.467-75.503,33.252-115.596l96.687-69.453
			c3.128,65.117-11.035,122.448-29.118,167.39L761.947,642.613z"/>
		<path fill="#FED600" d="M795.199,527.018c1.226-17.652,0.727-35.406-1.653-52.993l92.577-66.502
			c3.132,17.117,4.984,33.821,5.762,50.042L795.199,527.018z"/>
		<path fill="#689F42" d="M745.86,359.138l72.183-114.518c37.859,56.721,58.704,111.658,68.08,162.902l-92.577,66.502
			c-5.443-40.232-20.723-79.594-47.684-114.889"/>
		<path fill="#FED600" d="M745.862,359.136c-9.143-11.969-19.629-23.471-31.53-34.381l73.258-116.223
			c11.056,10.792,21.307,22.777,30.453,36.088L745.86,359.138"/>
		<path fill="#679F42" d="M468.741,786.531c-80.661-93.157-200.085-73.996-256.893-25.786
			c29.868,78.606,145.016,160.115,270.829,93.148"/>
		<path fill="#FED600" d="M328.602,868.76l93.292-122.169c-10.341-6.268-20.946-11.286-31.666-15.178l-0.001,0.002l-93.984,122.898
			c10.173,5.692,20.994,10.579,32.358,14.45"/>
		<path fill="#679F42" d="M554.592,786.531c80.66-93.157,200.085-73.996,256.893-25.786
			c-29.869,78.606-145.016,160.115-270.83,93.148"/>
		<path fill="#FED600" d="M694.73,868.76l-93.293-122.169c10.342-6.268,20.946-11.286,31.666-15.178l0.001,0.002l93.983,122.898
			c-10.172,5.692-20.994,10.579-32.357,14.45"/>
		<circle fill="#517737" cx="511.666" cy="835.498" r="77.5"/>
	</g>
	<g id="Layer_14">
	</g>
</g>
</svg>
